<svg xmlns="http://www.w3.org/2000/svg" viewBox="0 0 306.47 167.84"><defs><style>.cls-1{fill:#f50;}.cls-2{fill:#7640ff;}.cls-3{fill:#aa6eff;}.cls-4{fill:#ffb42e;}</style></defs><title>Logo-base</title><g id="Calque_2" data-name="Calque 2"><g id="Calque_1-2" data-name="Calque 1"><path class="cls-1" d="M0,19.82V32.26H26.24V99H41V32.26H67.17V19.82Z"/><path class="cls-1" d="M272.78,19.82H240.2V99h14.7V76.15h17.88c20.8,0,33.69-10.74,33.69-28.18S293.58,19.82,272.78,19.82Zm-.68,43.89H254.9V32.26h17.2C285,32.26,291.65,38,291.65,48S285,63.71,272.1,63.71Z"/><path class="cls-1" d="M18,143.79c-5-1.18-9.25-2.19-9.25-5.66,0-3.29,3.07-5.18,8.42-5.18A22,22,0,0,1,28.07,136l.25.15,2.53-6.2-.18-.11a25.45,25.45,0,0,0-13.42-3.58c-12,0-16.33,6.28-16.33,12.16,0,8.61,7.67,10.44,14.44,12,5,1.19,9.28,2.21,9.28,5.74,0,3.14-3.13,4.93-8.59,4.93a22,22,0,0,1-13-4.32l-.26-.21L0,162.88l.14.12c3.43,2.94,9.67,4.84,15.91,4.84,7.56,0,16.39-3.17,16.39-12.1C32.44,147.21,24.78,145.39,18,143.79Z"/><polygon class="cls-1" points="46.06 150.05 65.32 150.05 65.32 143.46 46.06 143.46 46.06 133.58 67.78 133.58 67.78 126.87 38.15 126.87 38.15 167.27 68.58 167.27 68.58 160.56 46.06 160.56 46.06 150.05"/><path class="cls-1" d="M108.84,141.31c0-8.84-6.49-14.19-17-14.19H75.45V167h7.41V155.4h9a13,13,0,0,0,1.53-.06L101.55,167h8l-9.18-13.11C105.77,151.81,108.84,147.34,108.84,141.31Zm-17.32,8H82.86v-15.9h8.66c6.49,0,9.85,2.91,9.85,7.92S98,149.29,91.52,149.29Z"/><polygon class="cls-1" points="131.64 157.26 118.58 127.02 118.52 126.87 109.93 126.87 127.6 167.27 135.22 167.27 152.84 126.87 144.88 126.87 131.64 157.26"/><polygon class="cls-1" points="163.18 150.05 182.46 150.05 182.46 143.46 163.18 143.46 163.18 133.58 184.9 133.58 184.9 126.87 155.27 126.87 155.27 167.27 185.71 167.27 185.71 160.56 163.18 160.56 163.18 150.05"/><path class="cls-1" d="M219.64,149.35c0,7.74-3.23,11.5-9.86,11.5s-9.88-3.76-9.88-11.5V126.87H192v22.77c0,11.57,6.47,18.2,17.75,18.2s17.7-6.63,17.7-18.2V126.87h-7.79Z"/><path class="cls-1" d="M269.81,141.31c0-8.84-6.51-14.19-17-14.19H236.4V167h7.41V155.4h9a13,13,0,0,0,1.53-.06L262.52,167h8l-9.18-13.11A12.78,12.78,0,0,0,269.81,141.31Zm-17.34,8h-8.66v-15.9h8.66c6.51,0,9.87,2.91,9.87,7.92S259,149.29,252.47,149.29Z"/><path class="cls-1" d="M291.28,143.79c-5-1.18-9.25-2.19-9.25-5.66,0-3.29,3.07-5.18,8.42-5.18A21.89,21.89,0,0,1,301.31,136l.25.15,2.53-6.2-.18-.11a25.48,25.48,0,0,0-13.42-3.58c-9.92,0-16.33,4.77-16.33,12.16,0,8.61,7.67,10.44,14.44,12,5,1.19,9.28,2.21,9.28,5.74,0,3.18-3,4.93-8.57,4.93a22.08,22.08,0,0,1-13-4.32l-.26-.21-2.76,6.23.14.12c3.4,2.94,9.65,4.84,15.91,4.84,7.56,0,16.39-3.17,16.39-12.1C305.7,147.21,298,145.39,291.28,143.79Z"/><path class="cls-2" d="M179.91,35.09,152.45,62.55,125,35.09,103.38,56.7a49.42,49.42,0,0,1,98.15,0Z"/><path class="cls-3" d="M187.4,97.49a49.42,49.42,0,0,1-84-29.1L125,90l27.46-27.46L179.91,90l21.62-21.62A49.2,49.2,0,0,1,187.4,97.49Z"/><path class="cls-2" d="M117.55,97.54a49.43,49.43,0,0,0,84-29.15L183.16,86.76a4.58,4.58,0,0,1-6.49,0L152.45,62.55,128.24,86.76a4.58,4.58,0,0,1-6.49,0L103.38,68.39A49.19,49.19,0,0,0,117.55,97.54Z"/><rect class="cls-1" x="143.53" y="77.79" width="17.85" height="17.85" transform="translate(105.97 -82.4) rotate(45)"/><polygon class="cls-4" points="139.83 86.71 152.46 79.22 165.08 86.71 152.46 74.09 139.83 86.71"/><polygon class="cls-4" points="165.08 86.71 152.46 94.2 139.83 86.71 152.46 99.33 165.08 86.71"/><path class="cls-1" d="M141.35,59,128.87,46.42a5.09,5.09,0,0,0-7.21,0L109.07,58.87a5.1,5.1,0,0,0,0,7.22l12.48,12.59a5.11,5.11,0,0,0,7.22,0l12.58-12.48A5.09,5.09,0,0,0,141.35,59Zm-7.49,6.11L127.64,65l-.14,6.22-5-.11.14-6.23-6.23-.13.11-5,6.23.14.14-6.23,5,.11L127.75,60l6.22.14Z"/><path class="cls-1" d="M196.08,58.9,183.51,46.39a5.1,5.1,0,0,0-7.21,0L163.79,59a5.09,5.09,0,0,0,0,7.21L176.38,78.7a5.09,5.09,0,0,0,7.21,0l12.5-12.57A5.1,5.1,0,0,0,196.08,58.9Zm-22.7,8.28a4.85,4.85,0,1,1,4.91-4.77A4.85,4.85,0,0,1,173.38,67.18Zm13,.2a4.84,4.84,0,1,1,4.91-4.77A4.84,4.84,0,0,1,186.36,67.38Z"/><path class="cls-1" d="M213.34,48V73.11a6.19,6.19,0,0,1-6.16,6.16h-4.05a53.3,53.3,0,0,0-1.48-37.44h1.22a53,53,0,0,0-100.82,0h1.22a53.3,53.3,0,0,0-1.48,37.44H97.74a6.2,6.2,0,0,1-6.17-6.16V48a6.17,6.17,0,0,1,5.07-6,58.11,58.11,0,0,1,111.62,0A6.17,6.17,0,0,1,213.34,48Z"/><path class="cls-1" d="M181.78,97.9H168.5a1,1,0,0,1,0-2h13.28a19.64,19.64,0,0,0,16.73-9.27l5.61-9a1,1,0,1,1,1.69,1.07l-5.61,9A21.61,21.61,0,0,1,181.78,97.9Z"/><rect class="cls-4" x="165.26" y="93.17" width="11.35" height="7.45" rx="2.03"/><path class="cls-1" d="M91.07,42h7a1,1,0,0,1,1,1V78.27a1,1,0,0,1-1,1h-7a2.35,2.35,0,0,1-2.35-2.35V44.33A2.35,2.35,0,0,1,91.07,42Z"/><path class="cls-1" d="M208.18,42h7a1,1,0,0,1,1,1V78.26a1,1,0,0,1-1,1h-7a2.35,2.35,0,0,1-2.35-2.35V44.32A2.35,2.35,0,0,1,208.18,42Z" transform="translate(422.02 121.23) rotate(180)"/><path class="cls-4" d="M152.45,62.55a137.06,137.06,0,0,1,11-14.42Q169.27,41.3,175.62,35t13.16-12.22A134.62,134.62,0,0,1,203.2,11.8a133.63,133.63,0,0,1-10.95,14.42Q186.39,33,180,39.38T166.87,51.59A137.06,137.06,0,0,1,152.45,62.55Z"/><path class="cls-4" d="M152.46,62.55a137.06,137.06,0,0,1-14.42-11q-6.82-5.87-13.16-12.21T112.66,26.22a134.62,134.62,0,0,1-11-14.42,134.62,134.62,0,0,1,14.42,11Q123,28.62,129.29,35T141.5,48.13A137.06,137.06,0,0,1,152.46,62.55Z"/></g></g></svg>